# xmcd CD database file
#
# Track frame offsets:
#	150
#	11079
#	22715
#	28764
#	38261
#	50231
#	61744
#	72369
#	76758
#	83779
#	99330
#	117352
#	128143
#	137809
#	151669
#	169732
#
# Disc length: 2392 seconds
#
# Revision: 0
# Processed by: cddbd v1.5.2PL0 Copyright (c) Steve Scherf et al.
# Submitted via: CDex 1.70beta2
#
DISCID=bc095610
DTITLE=Joe Stoddard - Singing Cowboy
DYEAR=2001
DGENRE=Country
TTITLE0=Cattle Call
TTITLE1=Ghost Riders
TTITLE2=How the Yodel was Born
TTITLE3=Don't Fence Me In
TTITLE4=Della and the Dealer
TTITLE5=Daddy Cut the Big One
TTITLE6=Mariah
TTITLE7=Kids
TTITLE8=Spanish Music
TTITLE9=I've Been Everywhere
TTITLE10=Evangelina
TTITLE11=Copenhagen
TTITLE12=Bud
TTITLE13=First Cowboy Poet
TTITLE14=Hank Williams
TTITLE15=Butt Scootin' Doggie
EXTD=YEAR: 2001
EXTT0=
EXTT1=
EXTT2=
EXTT3=
EXTT4=
EXTT5=
EXTT6=
EXTT7=
EXTT8=
EXTT9=
EXTT10=
EXTT11=
EXTT12=
EXTT13=
EXTT14=
EXTT15=
PLAYORDER=
